 <svg version="1.0" xmlns="http://www.w3.org/2000/svg"
viewBox="0 0 327 327">

<g transform="translate(0.000000,327.000000) scale(0.100000,-0.100000)"
fill="#000000" stroke="none">
<path d="M1515 3210 c-196 -20 -336 -60 -498 -141 -272 -137 -474 -334 -614
-600 -154 -292 -203 -666 -126 -974 58 -232 176 -453 333 -622 l49 -53 252 0
c247 0 251 0 228 19 -13 10 -40 26 -59 36 -52 27 -178 126 -231 182 -240 252
-350 601 -295 932 48 283 172 496 406 692 93 77 249 160 369 194 189 54 467
50 646 -10 77 -26 208 -89 272 -132 137 -90 298 -273 373 -423 80 -161 112
-302 112 -495 0 -199 -39 -352 -133 -521 -94 -170 -248 -330 -404 -420 -97
-55 -100 -54 173 -54 l250 0 55 60 c147 158 275 404 327 625 57 243 39 540
-50 791 -114 325 -370 613 -685 772 -221 111 -515 166 -750 142z"/>
<path d="M1216 2617 c-9 -7 -32 -52 -50 -102 -34 -90 -34 -90 -82 -108 -27 -9
-68 -24 -92 -33 -95 -35 -75 -88 48 -129 45 -15 86 -35 92 -44 6 -10 25 -53
42 -97 28 -71 34 -79 60 -82 16 -2 33 1 40 8 6 6 24 50 41 97 l30 86 89 33
c92 34 106 44 106 80 0 24 0 24 -115 68 -78 31 -80 32 -97 81 -10 28 -25 68
-33 91 -18 47 -53 70 -79 51z"/>
<path d="M2007 2306 c-7 -8 -40 -84 -72 -170 l-58 -155 -66 -26 c-36 -14 -111
-42 -166 -63 -99 -38 -100 -39 -103 -73 -4 -42 -6 -41 183 -106 72 -25 137
-52 146 -61 9 -10 37 -75 64 -147 65 -177 70 -185 104 -185 16 0 33 6 39 13 5
6 33 80 62 162 29 83 58 155 64 161 6 7 74 35 151 64 157 58 185 73 185 98 0
36 -28 53 -167 101 -79 28 -150 54 -159 59 -15 9 -37 62 -105 257 -28 81 -66
107 -102 71z"/>
<path d="M493 438 c-71 -101 -134 -196 -141 -211 -17 -39 -15 -75 8 -125 15
-33 29 -47 62 -62 42 -19 76 -20 1218 -20 1099 0 1177 1 1210 18 73 36 103
135 63 210 -21 38 -218 318 -246 350 l-20 22 -1013 0 -1012 0 -129 -182z"/>
</g>
</svg>