<svg xmlns="http://www.w3.org/2000/svg" xmlns:v="https://svgstorm.com"
viewBox = "0 0 1262 1190"
width="1262"
height="1190">
<g fill="None" fill-opacity="0.00" stroke="None">
<path d="
M 0.00 1190.00 
L 1262.00 1190.00
L 1262.00 0.00
L 0.00 0.00
L 0.00 1190.00
M 85.00 383.00 
C 118.90 414.66 158.25 442.08 204.00 450.00
C 142.48 633.01 217.67 852.81 388.00 950.00
C 415.68 926.99 449.41 914.92 482.68 902.68 C 515.95 890.44 554.77 878.85 586.70 863.70 C 618.62 848.54 648.22 831.40 664.32 798.32 C 680.42 765.24 683.37 714.77 666.08 681.92 C 648.78 649.08 628.00 628.20 597.30 607.70 C 566.61 587.19 524.34 573.92 486.99 576.99 C 449.64 580.06 418.45 605.21 408.00 641.00
C 378.95 623.57 353.23 589.30 356.00 554.00 C 358.77 518.70 379.40 487.94 406.25 464.25 C 433.10 440.56 458.04 423.12 492.07 410.07 C 526.11 397.02 559.07 384.76 596.02 374.02 C 632.98 363.29 677.82 358.00 719.00 357.00 C 760.18 356.00 808.93 360.15 848.02 367.98 C 887.12 375.80 921.82 383.68 959.00 397.00
C 943.36 365.78 926.46 336.01 902.75 309.25 C 879.03 282.50 856.77 260.55 827.25 239.75 C 797.74 218.94 768.65 202.35 732.78 189.22 C 696.90 176.10 653.87 166.18 612.78 164.22 C 571.69 162.26 522.03 168.31 483.00 179.00
C 472.75 134.07 450.95 92.15 417.00 59.00
C 456.98 44.60 496.25 37.41 539.00 32.00 C 581.75 26.59 637.65 29.47 678.67 36.33 C 719.69 43.19 759.47 54.32 796.03 68.98 C 832.58 83.63 861.81 101.00 893.25 121.75 C 924.69 142.51 948.50 162.65 975.25 189.75 C 1002.00 216.86 1022.03 240.67 1042.92 272.08 C 1063.81 303.50 1080.19 333.78 1094.98 370.03 C 1109.76 406.27 1121.39 445.62 1128.98 486.02 C 1136.56 526.43 1138.89 584.56 1136.01 627.01 C 1133.13 669.45 1124.05 714.95 1112.22 753.22 C 1100.39 791.49 1086.31 825.25 1067.69 858.69 C 1049.08 892.14 1030.71 918.96 1006.70 947.70 C 982.69 976.43 960.00 997.53 931.30 1021.30 C 902.61 1045.08 874.85 1063.04 840.92 1080.92 C 807.00 1098.81 771.74 1112.47 732.98 1122.98 C 694.21 1133.48 644.62 1141.26 602.00 1142.00 C 559.38 1142.74 506.27 1136.51 466.98 1127.02 C 427.69 1117.53 391.76 1103.72 356.92 1087.08 C 322.08 1070.43 294.38 1051.97 264.75 1029.25 C 235.13 1006.53 211.72 985.36 187.25 956.75 C 162.78 928.14 143.17 902.97 124.23 869.77 C 105.29 836.57 90.31 804.20 77.68 766.32 C 65.04 728.44 54.93 685.30 51.01 642.99 C 47.08 600.68 47.25 544.05 54.00 502.00 C 60.75 459.95 70.29 423.27 84.93 383.93
M 269.00 112.00 
C 329.75 119.34 374.38 175.86 368.22 237.22 C 362.06 298.58 304.85 344.45 243.00 338.00 C 181.15 331.55 136.52 272.84 143.00 212.00 C 149.48 151.16 207.73 104.59 269.00 112.00 Z"/>
</g>
<g fill="rgb(112, 172, 178)" fill-opacity="1.00" stroke="None">
<path d="
M 84.93 383.93 
C 70.29 423.27 60.75 459.95 54.00 502.00 C 47.25 544.05 47.08 600.68 51.01 642.99 C 54.93 685.30 65.04 728.44 77.68 766.32 C 90.31 804.20 105.29 836.57 124.23 869.77 C 143.17 902.97 162.78 928.14 187.25 956.75 C 211.72 985.36 235.13 1006.53 264.75 1029.25 C 294.38 1051.97 322.08 1070.43 356.92 1087.08 C 391.76 1103.72 427.69 1117.53 466.98 1127.02 C 506.27 1136.51 559.38 1142.74 602.00 1142.00 C 644.62 1141.26 694.21 1133.48 732.98 1122.98 C 771.74 1112.47 807.00 1098.81 840.92 1080.92 C 874.85 1063.04 902.61 1045.08 931.30 1021.30 C 960.00 997.53 982.69 976.43 1006.70 947.70 C 1030.71 918.96 1049.08 892.14 1067.69 858.69 C 1086.31 825.25 1100.39 791.49 1112.22 753.22 C 1124.05 714.95 1133.13 669.45 1136.01 627.01 C 1138.89 584.56 1136.56 526.43 1128.98 486.02 C 1121.39 445.62 1109.76 406.27 1094.98 370.03 C 1080.19 333.78 1063.81 303.50 1042.92 272.08 C 1022.03 240.67 1002.00 216.86 975.25 189.75 C 948.50 162.65 924.69 142.51 893.25 121.75 C 861.81 101.00 832.58 83.63 796.03 68.98 C 759.47 54.32 719.69 43.19 678.67 36.33 C 637.65 29.47 581.75 26.59 539.00 32.00 C 496.25 37.41 456.98 44.60 417.00 59.00
C 450.95 92.15 472.75 134.07 483.00 179.00
C 522.03 168.31 571.69 162.26 612.78 164.22 C 653.87 166.18 696.90 176.10 732.78 189.22 C 768.65 202.35 797.74 218.94 827.25 239.75 C 856.77 260.55 879.03 282.50 902.75 309.25 C 926.46 336.01 943.36 365.78 959.00 397.00
C 921.82 383.68 887.12 375.80 848.02 367.98 C 808.93 360.15 760.18 356.00 719.00 357.00 C 677.82 358.00 632.98 363.29 596.02 374.02 C 559.07 384.76 526.11 397.02 492.07 410.07 C 458.04 423.12 433.10 440.56 406.25 464.25 C 379.40 487.94 358.77 518.70 356.00 554.00 C 353.23 589.30 378.95 623.57 408.00 641.00
C 418.45 605.21 449.64 580.06 486.99 576.99 C 524.34 573.92 566.61 587.19 597.30 607.70 C 628.00 628.20 648.78 649.08 666.08 681.92 C 683.37 714.77 680.42 765.24 664.32 798.32 C 648.22 831.40 618.62 848.54 586.70 863.70 C 554.77 878.85 515.95 890.44 482.68 902.68 C 449.41 914.92 415.68 926.99 388.00 950.00
C 217.67 852.81 142.48 633.01 204.00 450.00
C 158.25 442.08 118.90 414.66 85.00 383.00
M 1000.00 633.00 
C 997.93 655.50 992.91 677.22 988.00 699.00
C 884.78 635.73 774.38 582.16 660.00 545.00
C 782.65 525.67 896.60 576.76 1000.00 633.00 Z"/>
</g>
<g fill="rgb(112, 172, 178)" fill-opacity="1.00" stroke="None">
<path d="
M 269.00 112.00 
C 207.73 104.59 149.48 151.16 143.00 212.00 C 136.52 272.84 181.15 331.55 243.00 338.00 C 304.85 344.45 362.06 298.58 368.22 237.22 C 374.38 175.86 329.75 119.34 269.00 112.00 Z"/>
</g>
<g fill="None" fill-opacity="0.00" stroke="None">
<path d="
M 1000.00 633.00 
C 896.60 576.76 782.65 525.67 660.00 545.00
C 774.38 582.16 884.78 635.73 988.00 699.00
C 992.91 677.22 997.93 655.50 1000.00 633.00 Z"/>
</g>
</svg>