<?xml version="1.0" standalone="no"?>
<!DOCTYPE svg PUBLIC "-//W3C//DTD SVG 20010904//EN"
 "http://www.w3.org/TR/2001/REC-SVG-20010904/DTD/svg10.dtd">
<svg version="1.0" xmlns="http://www.w3.org/2000/svg"
 width="512.000000pt" height="512.000000pt" viewBox="0 0 512.000000 512.000000"
 preserveAspectRatio="xMidYMid meet">

<g transform="translate(0.000000,512.000000) scale(0.100000,-0.100000)"
fill="#000000" stroke="none">
<path d="M2440 4914 c-30 -2 -79 -6 -107 -10 l-53 -5 0 -962 c0 -940 0 -962
-20 -1002 -13 -26 -34 -49 -59 -63 l-39 -22 -970 0 -970 0 -8 -67 c-4 -38 -8
-138 -8 -223 0 -85 4 -185 8 -222 l8 -68 970 0 970 0 39 -22 c25 -14 46 -37
59 -63 20 -40 20 -62 20 -1002 l0 -961 53 -8 c65 -9 428 -7 482 4 l40 7 5 977
c5 968 5 977 26 1005 11 15 36 36 55 45 32 17 100 18 996 18 l961 0 8 67 c4
38 7 138 7 223 0 85 -3 185 -7 223 l-8 67 -961 0 c-896 0 -964 1 -996 18 -19
9 -44 30 -55 45 -21 28 -21 37 -26 1005 l-5 976 -40 7 c-52 9 -304 17 -375 13z"/>
<path d="M1850 4806 c-274 -85 -525 -220 -763 -409 l-89 -70 109 -107 c59 -58
280 -277 491 -485 l382 -379 0 742 c0 587 -3 742 -12 742 -7 -1 -60 -16 -118
-34z"/>
<path d="M3160 4103 l0 -738 480 480 481 480 -33 29 c-220 191 -542 369 -823
455 -38 12 -78 24 -87 27 -17 5 -18 -34 -18 -733z"/>
<path d="M721 4033 c-140 -177 -260 -381 -345 -589 -36 -88 -96 -270 -96 -290
0 -2 334 -4 742 -4 l741 0 -483 478 c-265 262 -486 478 -490 480 -4 1 -35 -32
-69 -75z"/>
<path d="M3850 3631 l-485 -480 738 0 c699 -1 738 0 733 17 -2 9 -14 51 -26
92 -78 270 -240 565 -452 823 l-23 29 -485 -481z"/>
<path d="M280 1966 c0 -20 60 -202 95 -287 97 -237 239 -472 391 -647 l29 -33
485 486 485 485 -743 0 c-408 0 -742 -2 -742 -4z"/>
<path d="M3740 1593 c205 -208 422 -427 480 -486 l107 -109 70 89 c144 180
252 361 338 568 36 86 105 290 105 311 0 2 -332 4 -737 4 l-737 0 374 -377z"/>
<path d="M1600 1383 c-201 -203 -416 -420 -478 -484 l-113 -115 83 -66 c186
-146 379 -259 587 -343 99 -39 270 -95 293 -95 4 0 8 331 8 735 0 404 -3 735
-8 735 -4 0 -171 -165 -372 -367z"/>
<path d="M3160 1017 l0 -736 73 20 c188 52 441 171 625 293 110 73 247 181
247 194 0 5 -213 224 -472 487 l-473 478 0 -736z"/>
</g>
</svg>
