<svg height="32" viewBox="0 0 32 32" width="32" fill="currentColor" xmlns="http://www.w3.org/2000/svg"><path d="m3.197 17.375c.349-.853-.052-1.833-.905-2.181-.844-.349-1.819.061-2.167.916-.355.849.052 1.817.891 2.161.844.36 1.828-.047 2.167-.896zm1.126-4.328c.344-.844-.057-1.823-.916-2.183-.844-.343-1.823.068-2.188.917-.359.849.041 1.823.88 2.172.865.353 1.823-.052 2.188-.907zm1.589-1.459c.859.355 1.823-.052 2.181-.9.339-.849-.063-1.833-.9-2.183-.844-.349-1.824.063-2.188.911-.36.855.063 1.824.907 2.172zm4.208 1.401c.859.344 1.823-.057 2.187-.901.339-.859-.061-1.843-.921-2.181-.849-.365-1.828.057-2.172.9-.359.839.063 1.824.907 2.167zm18.683 4.355c.359.839 1.323 1.24 2.181.88.844-.36 1.245-1.323.88-2.188-.359-.859-1.343-1.26-2.181-.9-.865.343-1.261 1.323-.901 2.187zm.978-3.448c.844-.344 1.245-1.323.901-2.188-.36-.844-1.344-1.26-2.183-.901-.864.36-1.265 1.324-.901 2.183.339.844 1.323 1.245 2.161.907zm-3.724-2.308c.839-.343 1.24-1.323.896-2.172-.36-.864-1.333-1.265-2.188-.916-.844.36-1.249 1.323-.891 2.188.36.839 1.339 1.239 2.183.9zm-4.546 1.141c.839-.36 1.239-1.344.901-2.183-.365-.864-1.324-1.265-2.188-.921-.844.359-1.245 1.344-.88 2.181.359.844 1.323 1.245 2.187.887zm-8.943-6.15.125 3.203 2.333-1.235c.047.052.104.104.161.147-.24.952-.828 2.552-1.199 3.432-.443 1.083.073 2.323 1.151 2.771 1.084.443 2.329-.084 2.777-1.161.323-.761.161-1.589-.319-2.167-.52-.907-1.041-2.041-1.323-2.928.084-.056.14-.14.197-.197l2.532 1.303.12-3.188-2.631.844c-.021-.041-.036-.084-.057-.099l1.021-2.912-3.104-.099.943 2.864c-.084.041-.141.104-.204.183zm15.859 12.145c.213 1.177.251 1.713-.02 2.479-.38-.38-.719-1.072-.995-2.124l-1.167 3.719c.692-.459 1.224-.751 1.823-.761-1.089 2.287-2.428 2.865-3.281 2.699-1.052-.213-1.536-1.156-1.355-1.959.235-1.12 1.407-1.401 1.932-.088 1.057-2.089-.692-2.771-1.823-2.167 1.751-1.704 1.959-3.235.568-5.115-1.953 1.473-1.984 2.948-1.136 5.031-1.119-1.312-2.905-.62-2.28 1.484.833-1.265 1.905-.463 1.728.756-.145 1.057-1.552 1.88-3.281 1.719-2.484-.219-2.604-1.943-2.645-3.365.604-.099 1.703.48 2.645 1.808l.381-3.953c-1.021 1.041-1.964 1.26-2.985 1.287.36-1.041 1.943-2.792 1.943-2.792l-4.968-.057s1.583 1.765 1.921 2.823c-1.025-.015-1.948-.219-2.968-1.281l.343 3.948c.939-1.317 2.043-1.88 2.647-1.781-.063 1.401-.203 3.125-2.688 3.349-1.724.141-3.129-.703-3.265-1.765-.161-1.203.921-2.005 1.74-.719.64-2.104-1.141-2.808-2.267-1.505.887-2.084.865-3.568-1.077-5.052-1.407 1.864-1.203 3.391.536 5.135-1.12-.624-2.885.037-1.844 2.141.543-1.323 1.709-1.021 1.948.099.157.803-.323 1.745-1.364 1.943-.86.161-2.183-.416-3.265-2.724.599.021 1.12.323 1.801.781l-1.14-3.708c-.281 1.041-.641 1.729-1.027 2.104-.244-.76-.219-1.303.021-2.479l-2.407.817c1.229 1.688 2.48 4.025 3.459 8.14 3.031-.505 8.208-.807 11.344-.807 3.124.021 8.301.38 11.323.921 1.025-4.109 2.287-6.432 3.531-8.099l-2.364-.859z"/></svg>