<svg viewBox="0 6.6 198.4 191.9" xmlns="http://www.w3.org/2000/svg">
    <path fill="auto" d="M 198.4 99.2 C 198.4 154 153.3 198.5 97.7 198.5 C 50.4 198.5 10.8 166.4 0 123.1 C 19.7 
    122.9 38.4 118.5 55.3 111 L 55.094 81.303 C 55.094 78.203 53.394 73.316 51.294 71.916 C 49.094 70.516 45.968 
    68.512 40.468 68.512 L 40.6 59.8 C 47.9 59.6 54.6 59.1 60.7 58.5 C 66.8 57.9 72 57 76.4 55.8 L 76.5 111.9 C 
    76.5 115.1 76.5 118.6 76.5 122.3 C 76.5 126 76.4 129.5 76.3 133.1 C 76.2 136.6 76 139.9 75.8 143 C 75.6 146.1 
    75.3 148.7 74.9 150.8 C 80.9 154.2 87.5 157 94.8 159.3 C 102.1 161.5 108.9 162.7 115.3 162.7 C 120.7 162.7 
    125.9 161.9 130.9 160.3 C 135.9 158.7 140.4 156.4 144.3 153.3 C 148.2 150.2 151.3 146.5 153.7 142 C 156.1 
    137.5 157.3 132.4 157.3 126.8 C 157.3 121.6 156.4 116.8 154.6 112.5 C 152.8 108.1 150.3 104.4 147 101.2 C 
    143.8 98 139.9 95.5 135.5 93.7 C 131.1 91.9 126.2 91 120.9 91 C 116.9 91 112.9 91.7 108.8 93 C 104.7 94.4 
    100.9 96.1 97.6 98.1 L 97.6 81.2 C 115.7 62.5 128.5 38.7 133.4 12.2 C 133.194 12.221 134.3 6.7 134.3 6.6 C 
    171.8 21.1 198.4 57 198.4 99.2 Z M 100.6 150 C 103.3 154.7 108 157 114.6 157 C 121.2 157 125.8 154.7 128.6 
    150 C 131.3 145.3 132.7 138 132.7 128 C 132.7 118 131.3 110.6 128.6 106 C 125.8 101.3 121.2 99 114.6 99 C 
    108 99 103.4 101.3 100.6 106 C 97.8 110.7 96.5 118 96.5 128 C 96.5 138 97.8 145.3 100.6 150 Z M 74.4 44.7 
    C 77.2 42 78.6 38.7 78.6 34.6 C 78.6 30.6 77.2 27.2 74.4 24.5 C 71.6 21.8 68.2 20.5 64.3 20.5 C 60.3 20.5 
    56.9 21.8 54.2 24.5 C 51.4 27.2 50 30.5 50 34.6 C 50 38.6 51.4 42 54.2 44.7 C 57 47.4 60.4 48.7 64.3 48.7 
    C 68.2 48.7 71.6 47.4 74.4 44.7 Z"/>
</svg>