<?xml version="1.0" standalone="no"?>
<!DOCTYPE svg PUBLIC "-//W3C//DTD SVG 20010904//EN"
 "http://www.w3.org/TR/2001/REC-SVG-20010904/DTD/svg10.dtd">
<svg version="1.0" xmlns="http://www.w3.org/2000/svg"
 width="504.000000pt" height="476.000000pt" viewBox="0 0 504.000000 476.000000"
 preserveAspectRatio="xMidYMid meet">

<g transform="translate(0.000000,476.000000) scale(0.100000,-0.100000)"
fill="#000000" stroke="none">
<path d="M2250 4690 c-410 -50 -798 -205 -1130 -453 -125 -94 -330 -295 -430
-422 -266 -341 -431 -746 -481 -1184 -17 -152 -7 -486 19 -631 45 -247 101
-419 212 -645 222 -453 596 -824 1056 -1051 312 -153 664 -234 1016 -234 835
0 1596 440 2013 1164 190 331 289 686 302 1076 11 350 -46 662 -183 987 -266
636 -850 1145 -1514 1322 -218 58 -334 73 -580 77 -124 1 -259 -2 -300 -6z
m537 -195 c227 -30 430 -90 638 -189 232 -111 388 -220 573 -400 334 -325 539
-722 619 -1195 14 -82 18 -158 17 -336 0 -126 -5 -248 -10 -270 l-10 -40 -99
-7 c-276 -19 -546 -77 -823 -175 -269 -95 -447 -185 -646 -327 -83 -59 -200
-185 -348 -374 -66 -84 -131 -160 -144 -169 -23 -15 -26 -15 -50 8 -15 13 -77
89 -139 169 -135 173 -250 290 -374 376 -94 65 -309 189 -371 214 -19 7 -39
17 -45 21 -12 8 -136 59 -217 88 -31 11 -145 43 -254 71 -192 50 -361 77 -586
95 l-88 7 -1 -44 c-1 -40 -2 -38 -15 27 -24 115 -29 467 -10 612 126 956 876
1710 1826 1837 144 19 412 19 557 1z m-1932 -2720 c155 -17 419 -76 565 -126
176 -61 386 -168 520 -267 158 -117 310 -273 310 -319 0 -6 -13 1 -30 17 -75
70 -338 235 -515 322 -113 56 -353 139 -495 172 -208 48 -264 57 -412 67 -90
5 -191 12 -225 15 l-63 6 -20 65 c-11 36 -20 67 -20 69 0 7 256 -7 385 -21z
m3697 19 c5 -4 -28 -121 -37 -132 -2 -2 -95 -10 -209 -18 -370 -26 -652 -97
-958 -242 -80 -39 -179 -92 -219 -119 -41 -28 -88 -57 -106 -66 -17 -9 -63
-44 -102 -78 -39 -33 -71 -57 -71 -52 0 20 119 171 176 222 135 124 419 282
629 351 204 66 397 109 535 120 213 17 354 23 362 14z m-3561 -404 c256 -26
475 -71 634 -131 44 -17 109 -42 144 -55 35 -13 112 -46 170 -73 59 -27 133
-54 166 -61 71 -15 170 -62 197 -93 10 -12 43 -54 72 -93 126 -165 181 -175
262 -46 46 73 193 225 219 227 20 2 123 27 180 44 17 5 102 39 189 75 149 61
197 77 424 140 161 46 479 81 664 74 l88 -3 -33 -55 -33 -55 -70 -2 c-302 -11
-768 -86 -939 -152 -27 -11 -86 -33 -131 -50 -186 -69 -434 -208 -434 -242 0
-5 35 -9 78 -9 97 0 107 -6 97 -56 -11 -61 -43 -114 -109 -180 -81 -80 -132
-99 -276 -99 -99 0 -109 2 -178 34 -107 50 -180 138 -195 235 -9 56 5 76 53
76 76 0 37 47 -109 129 -107 60 -186 93 -366 149 -207 66 -252 77 -426 106
-210 35 -235 38 -443 45 l-189 6 -35 63 -34 62 130 0 c71 0 176 -5 233 -10z
m121 -355 c270 -17 268 -17 458 -56 226 -47 386 -99 407 -132 4 -7 -69 -8
-228 -4 -129 4 -342 10 -474 13 l-240 6 -48 47 c-66 62 -131 141 -118 141 5 0
115 -7 243 -15z m3048 6 c0 -5 -37 -48 -82 -95 l-83 -87 -370 -5 c-203 -3
-404 -2 -445 3 l-75 8 28 19 c67 45 417 117 687 141 102 9 187 19 189 21 9 8
151 4 151 -5z m-2206 -464 c35 -82 181 -222 291 -278 l60 -31 -55 7 c-278 35
-601 146 -835 288 l-60 37 75 1 c41 1 170 5 285 8 116 3 213 5 218 3 4 -2 13
-18 21 -35z m1695 23 c28 -15 -246 -157 -424 -220 -106 -37 -298 -85 -381 -95
l-59 -7 80 41 c98 51 237 169 285 242 l34 54 226 -4 c124 -1 231 -7 239 -11z"/>
<path d="M3180 3993 c-213 -16 -502 -106 -770 -239 -169 -84 -403 -230 -498
-311 -52 -44 -54 -45 -67 -26 -22 32 -174 156 -245 200 -179 111 -305 153
-475 160 -102 4 -125 2 -155 -14 -91 -47 -78 -119 42 -233 166 -157 246 -292
296 -500 35 -145 35 -164 8 -197 -44 -53 -176 -266 -220 -357 -76 -155 -127
-279 -119 -286 4 -4 89 -26 188 -50 99 -24 239 -63 310 -87 145 -50 401 -173
485 -233 104 -75 115 -76 113 -7 -7 193 -3 324 12 401 17 94 59 212 99 280 34
59 164 178 228 210 95 48 121 28 56 -42 -88 -95 -167 -233 -198 -347 -42 -156
-37 -445 10 -598 15 -48 30 -73 57 -97 33 -29 40 -31 82 -25 126 19 268 143
388 340 27 44 55 94 62 110 30 68 80 225 96 300 17 86 21 256 7 342 -9 50 -7
54 37 127 127 209 243 285 651 431 96 34 212 74 257 89 46 15 85 32 88 37 4 5
15 9 26 9 18 0 20 -4 14 -32 -8 -36 -74 -164 -130 -252 -142 -223 -442 -516
-710 -696 l-71 -48 -14 -83 -13 -83 54 -49 c95 -86 200 -167 215 -167 9 0 59
22 112 50 72 37 121 54 190 67 l93 18 -6 50 c-12 96 -45 241 -74 330 -22 66
-27 91 -18 96 61 36 169 149 308 324 150 189 244 392 256 550 7 107 -7 155
-62 210 -54 54 -93 71 -210 91 -83 14 -97 20 -185 79 -53 35 -127 77 -166 94
-105 45 -304 74 -434 64z m-14 -446 c39 -42 42 -72 15 -133 -33 -73 -156 -147
-348 -210 -152 -50 -278 -44 -324 14 -27 35 -24 63 14 118 49 73 175 151 336
209 101 37 140 44 210 41 59 -2 66 -5 97 -39z"/>
</g>
</svg>
